<?xml version="1.0" encoding="UTF-8"?>
<svg xmlns="http://www.w3.org/2000/svg" xmlns:xlink="http://www.w3.org/1999/xlink" version="1.1" viewBox="0 0 785.89 122.39">
  <defs>
    <style>
      .cls-1 {
        fill: #52edb3;
      }

      .cls-2 {
        isolation: isolate;
      }

      .cls-3 {
        fill: url(#linear-gradient);
        mix-blend-mode: multiply;
      }
    </style>
    <linearGradient id="linear-gradient" x1="147.02" y1="251.33" x2="147.02" y2="158.07" gradientTransform="translate(-44.23 -176.01) rotate(5.6)" gradientUnits="userSpaceOnUse">
      <stop offset="0" stop-color="#636363"/>
      <stop offset=".39" stop-color="#f6f6f6"/>
      <stop offset=".41" stop-color="#f5f5f5"/>
      <stop offset="1" stop-color="#fff"/>
    </linearGradient>
  </defs>
  <!-- Generator: Adobe Illustrator 28.7.1, SVG Export Plug-In . SVG Version: 1.2.0 Build 142)  -->
  <g class="cls-2">
    <g id="Layer_1">
      <g>
        <g>
          <path d="M128.93,113.58c-4.91-3.58-7.43-8.66-7.58-15.22h14.6c.15,4.91,1.45,8.49,3.91,10.75,2.45,2.26,5.94,3.4,10.47,3.4,4.22,0,7.45-1.38,9.68-4.13,2.22-2.75,3.34-6.88,3.34-12.39v-57.39h16.64v55.12c0,8.23-2.55,14.49-7.64,18.79-5.09,4.3-12.47,6.45-22.13,6.45s-16.38-1.79-21.28-5.38Z"/>
          <path d="M200.46,114.54c-3.92-2.94-5.89-7.17-5.89-12.68s2.36-10.15,7.07-13.24c4.72-3.09,11.53-4.64,20.43-4.64h15.39v-3.85c0-4.38-1.25-7.71-3.74-10.02-2.49-2.3-6.08-3.45-10.75-3.45s-8.13,1.11-10.81,3.34c-2.68,2.23-4.32,5.45-4.92,9.68h-11.09c.83-5.96,3.66-10.53,8.49-13.7,4.83-3.17,11.36-4.75,19.58-4.75,8.98,0,15.86,1.74,20.66,5.21,4.79,3.47,7.19,8.45,7.19,14.94v18.11c0,6.64.57,12.75,1.7,18.34h-13.7c-.76-2.87-1.28-5.62-1.58-8.26-2.19,3.25-5.06,5.62-8.6,7.13-3.55,1.51-7.47,2.26-11.77,2.26-7.85,0-13.73-1.47-17.66-4.41ZM233.12,109.5c2.9-2.83,4.36-6.51,4.36-11.04v-8.94h-11.32c-5.59,0-9.81,1.04-12.68,3.11-2.87,2.08-4.3,5.11-4.3,9.11s1.04,6.9,3.11,8.94c2.07,2.04,5.11,3.06,9.11,3.06,4.9,0,8.81-1.42,11.72-4.24Z"/>
          <path d="M280.6,115.27c-4.53-2.45-8.08-5.89-10.64-10.3-2.57-4.41-3.85-9.41-3.85-15s1.17-10.88,3.51-15.22c2.34-4.34,5.68-7.68,10.02-10.02,4.34-2.34,9.34-3.51,15-3.51,4.9,0,9.21.94,12.9,2.83,3.7,1.89,6.56,4.57,8.6,8.04v-31.58h14.6v77.31h-14.6v-9.06c-4.23,6.79-10.94,10.19-20.15,10.19-5.74,0-10.87-1.23-15.39-3.68ZM311.33,107.29c3.21-4.22,4.81-9.92,4.81-17.09s-1.62-13.13-4.87-17.43c-3.25-4.3-7.66-6.45-13.24-6.45s-9.66,2.06-12.68,6.17c-3.02,4.11-4.53,9.9-4.53,17.37s1.57,13.21,4.7,17.43c3.13,4.23,7.41,6.34,12.85,6.34s9.75-2.11,12.96-6.34Z"/>
          <path d="M395.83,99.82h11.21c-1.36,6.11-4.77,10.83-10.24,14.15-5.47,3.32-12.28,4.98-20.43,4.98-6.57,0-12.28-1.15-17.15-3.45-4.87-2.3-8.62-5.62-11.26-9.96-2.64-4.34-3.96-9.41-3.96-15.22s1.32-11.02,3.96-15.39c2.64-4.38,6.4-7.75,11.26-10.13,4.87-2.38,10.58-3.57,17.15-3.57,10.04,0,17.75,2.49,23.15,7.47,5.39,4.98,8.13,12.15,8.21,21.51h-49.01v.68c0,7.17,1.6,12.73,4.81,16.7,3.21,3.96,7.98,5.94,14.32,5.94,10.19,0,16.19-4.56,18-13.7ZM364.76,71.36c-2.98,3.13-4.89,7.6-5.72,13.41h34.63c-.75-5.89-2.55-10.37-5.38-13.47-2.83-3.09-6.66-4.64-11.49-4.64s-9.07,1.57-12.06,4.7Z"/>
        </g>
        <g>
          <path d="M503.83,38.59v79.23h-6.79V44.59l-35.43,73.23h-1.36l-35.09-74.25v74.25h-4.53V38.59h9.4l32.15,68.93,33.28-68.93h8.38Z"/>
          <path d="M519.96,114.59c-3.66-2.9-5.49-7.07-5.49-12.51,0-5.89,2.26-10.36,6.79-13.41s11.13-4.58,19.81-4.58h17.66v-4.19c0-4.83-1.55-8.51-4.64-11.04-3.1-2.53-7.58-3.79-13.47-3.79-5.43,0-9.81,1.17-13.13,3.51-3.32,2.34-5.25,5.62-5.77,9.85h-5.32c.75-5.51,3.24-9.75,7.47-12.73,4.22-2.98,9.81-4.47,16.75-4.47,7.77,0,13.75,1.72,17.94,5.15,4.19,3.43,6.28,8.36,6.28,14.77v18.56c0,6.19.53,12.22,1.58,18.11h-5.77c-.83-3.4-1.36-7.09-1.58-11.09-4.83,8.15-12.6,12.22-23.32,12.22-6.87,0-12.13-1.45-15.79-4.36ZM548.09,112.5c3.24-1.89,5.83-4.41,7.75-7.58,1.92-3.17,2.89-6.6,2.89-10.3v-6.68h-16.07c-7.62,0-13.21,1.11-16.75,3.34-3.55,2.23-5.32,5.75-5.32,10.58,0,4.45,1.45,7.81,4.36,10.07,2.9,2.26,7.15,3.4,12.73,3.4,3.7,0,7.17-.94,10.41-2.83Z"/>
          <path d="M577.17,62.36h6.11v12.11c1.43-4.23,3.74-7.49,6.9-9.79,3.17-2.3,6.94-3.45,11.32-3.45,1.66,0,2.94.15,3.85.45l-1.02,5.43c-1.21-.6-2.79-.91-4.75-.91-4.9,0-8.85,2.08-11.83,6.23-2.98,4.15-4.47,9.66-4.47,16.53v28.86h-6.11v-55.46Z"/>
          <path d="M622.45,115.33c-4.53-2.41-8.04-5.79-10.53-10.13-2.49-4.34-3.74-9.38-3.74-15.11s1.24-10.68,3.74-15.05c2.49-4.38,6-7.77,10.53-10.19,4.53-2.41,9.73-3.62,15.62-3.62,6.87,0,12.73,1.6,17.6,4.81,4.87,3.21,8.05,7.6,9.56,13.19h-5.89c-1.28-4.3-3.89-7.73-7.81-10.3-3.92-2.56-8.53-3.85-13.81-3.85-4.6,0-8.68,1.04-12.22,3.11-3.55,2.08-6.3,5.02-8.26,8.83-1.96,3.81-2.94,8.17-2.94,13.07s.98,9.26,2.94,13.07c1.96,3.81,4.72,6.75,8.26,8.83,3.55,2.08,7.62,3.11,12.22,3.11,5.28,0,9.88-1.3,13.81-3.9s6.53-6.02,7.81-10.24h5.89c-1.43,5.51-4.6,9.89-9.51,13.13-4.91,3.25-10.75,4.87-17.54,4.87-5.96,0-11.21-1.21-15.73-3.62Z"/>
          <path d="M678.42,114.59c-3.66-2.9-5.49-7.07-5.49-12.51,0-5.89,2.26-10.36,6.79-13.41s11.13-4.58,19.81-4.58h17.66v-4.19c0-4.83-1.55-8.51-4.64-11.04-3.1-2.53-7.58-3.79-13.47-3.79-5.43,0-9.81,1.17-13.13,3.51-3.32,2.34-5.25,5.62-5.77,9.85h-5.32c.75-5.51,3.24-9.75,7.47-12.73,4.22-2.98,9.81-4.47,16.75-4.47,7.77,0,13.75,1.72,17.94,5.15,4.19,3.43,6.28,8.36,6.28,14.77v18.56c0,6.19.53,12.22,1.58,18.11h-5.77c-.83-3.4-1.36-7.09-1.58-11.09-4.83,8.15-12.6,12.22-23.32,12.22-6.87,0-12.13-1.45-15.79-4.36ZM706.55,112.5c3.24-1.89,5.83-4.41,7.75-7.58s2.89-6.6,2.89-10.3v-6.68h-16.07c-7.62,0-13.21,1.11-16.75,3.34-3.55,2.23-5.32,5.75-5.32,10.58,0,4.45,1.45,7.81,4.36,10.07,2.9,2.26,7.15,3.4,12.73,3.4,3.7,0,7.17-.94,10.41-2.83Z"/>
          <path d="M741.75,114.26c-4.83-3.13-7.62-7.34-8.38-12.62h6c.53,4.07,2.72,7.34,6.57,9.79,3.85,2.45,8.72,3.68,14.6,3.68s10.37-1.15,13.92-3.45c3.55-2.3,5.32-5.34,5.32-9.11,0-2.26-.6-4.09-1.81-5.49-1.21-1.4-3.23-2.56-6.06-3.51-2.83-.94-6.85-1.83-12.06-2.66-6.19-.98-11.06-2.07-14.6-3.28-3.55-1.21-6.09-2.72-7.64-4.53-1.55-1.81-2.32-4.11-2.32-6.9,0-4.53,2.19-8.15,6.56-10.87,4.38-2.72,10.22-4.07,17.54-4.07s13.3,1.55,17.94,4.64c4.64,3.09,7.38,7.32,8.21,12.68h-6c-.6-4.07-2.74-7.34-6.4-9.79-3.66-2.45-8.24-3.68-13.75-3.68s-9.6,1-12.96,3c-3.36,2-5.04,4.55-5.04,7.64,0,1.96.56,3.53,1.7,4.7,1.13,1.17,3.15,2.19,6.06,3.06,2.9.87,7.3,1.79,13.19,2.77,8.45,1.43,14.49,3.38,18.11,5.83,3.62,2.45,5.43,5.91,5.43,10.36,0,4.98-2.34,8.98-7.02,12-4.68,3.02-10.87,4.53-18.56,4.53s-13.73-1.56-18.56-4.7Z"/>
        </g>
        <g>
          <rect y="19.92" width="102.47" height="102.47" rx="5.16" ry="5.16"/>
          <g>
            <path class="cls-1" d="M130.12.33L31.83,83.98l42.75-.89L132.03,2.04c.85-1.25-.77-2.7-1.91-1.71Z"/>
            <path class="cls-3" d="M130.12.33L31.83,83.98l42.75-.89L132.03,2.04c.85-1.25-.77-2.7-1.91-1.71Z"/>
            <path class="cls-1" d="M6.98,49.24l40.7,56.88c2.57,3.59,7.89,3.65,10.54.12l24.79-35.08h0c-5.53,6.68-15.02,8.5-22.64,4.36L8.65,47.35c-1.21-.66-2.47.77-1.67,1.89Z"/>
          </g>
        </g>
      </g>
    </g>
  </g>
</svg>